<?xml version="1.0" standalone="no"?>
<!DOCTYPE svg PUBLIC "-//W3C//DTD SVG 20010904//EN"
 "http://www.w3.org/TR/2001/REC-SVG-20010904/DTD/svg10.dtd">

<svg
version="1.0"
id="svg1"
width="100"
height="100" 
viewBox="0 0 900 900"
xmlns="http://www.w3.org/2000/svg"
xmlns:xlink="http://www.w3.org/1999/xlink"
xml:space="preserve"
zoomAndPan="disable">

    <g id="g15">
        <path
            style="display:inline;fill:#FFFFFF;stroke:none;fill-opacity:1"
            d="m 142.46506,227.39615 0.39138,48.92344 43.83541,2.73971 -3.26948,141.22374 54.86548,3.79924 3.58964,-145.41437 40.31291,-1.56555 2.34833,-48.14066 z"
            id="path1" />
        <path
            style="fill:#FFFFFF;fill-opacity:1;stroke:none"
            d="m 294.32341,227.78754 1.95694,190.21433 119.76458,5.47942 -1.69985,-38.58524 -68.7499,-2.90184 -0.19569,-34.05071 42.85693,0.39139 0.78277,-45.59664 -43.6397,-0.1957 0.78278,-26.41866 66.14448,0.39139 0.58708,-45.20526 z"
            id="path2"/>
        <path
            style="fill:#FFFFFF;stroke:none;fill-opacity:1"
            d="m 435.22292,227.39615 -7.82775,14.08995 1.17416,180.03826 11.74163,5.08803 7.82775,-9.78468 116.24209,0.78277 4.69665,-7.04497 -1.95694,-38.35598 -45.79234,-3.52249 -5.47942,27.00574 -35.22488,-3.1311 -0.39139,-125.63539 35.22488,1.95693 3.91388,27.39713 47.35789,0.39139 3.91387,-52.44593 -14.48134,-14.87272 z"/>
        <path
            style="fill:#FFFFFF;stroke:none;fill-opacity:1"
            d="m 583.1674,228.9617 -1.56555,200.78179 20.35215,-1.95693 4.30526,-6.65359 28.57129,-1.17416 1.56555,-68.88421 34.83349,1.17417 -0.78277,66.00814 29.35406,-1.42921 23.48325,7.43637 5.47943,-192.95405 -54.01148,-4.69665 -1.17416,76.71196 -34.4421,-0.39139 1.95693,-74.75502 z"
            id="path4"/>
    </g>
    <g id="g17">
        <path
            style="fill:#368bf2;fill-opacity:1;stroke:none"
            d="m 606.07748,419.26285 -8.42874,12.82897 -2.73971,86.49664 12.91578,12.91579 77.88612,9.78469 -1.95694,32.48516 -41.09569,-1.95694 -1.95693,-19.56937 -41.87847,-1.56555 -6.2622,68.49281 111.93683,-1.56555 30.13684,-12.13301 0.39139,-76.32057 -10.95885,-26.22296 -79.06028,-5.47943 3.1311,-31.70238 36.79043,-2.73971 5.87081,20.74353 33.26794,-3.1311 8.61052,-7.04497 -2.34832,-46.57512 -30.13684,-10.17607 z"
            id="path5" />
        <path
            id="path6"
            style="fill:#f3b81c;fill-opacity:1;stroke:none"
            d="m 447.74805,416.82812 -8.26776,7.47507 1.22283,185.08743 9.78321,6.6543 120.15625,2.73828 7.4375,-15.26367 c 0,0 5.05886,-124.87431 3.13086,-172.21094 -0.32089,-7.87862 -8.79692,-14.90579 -18.39649,-14.87304 z m 44.61718,42.26954 36.79102,2.34765 V 578.4707 l -35.61719,-2.74023 z" />
        <path
            id="path7"
            style="fill:#30bd0f;stroke:none;fill-opacity:1"
            d="M 288.06055 416.82812 L 288.06055 618.39258 L 337.37695 612.52148 L 338.55078 567.12109 L 353.03125 568.29492 L 383.16797 618 L 420.34961 608.60742 L 423.48047 599.60547 L 405.47656 562.81445 L 418.39258 562.0332 L 427.78711 545.20312 L 428.56836 432.875 L 416.04492 423.08984 L 288.06055 416.82812 z M 342.85547 461.05469 L 376.51562 463.40234 L 376.90625 519.76172 L 341.28906 522.89453 L 342.85547 461.05469 z "/>
        <path
            id="path8"
            style="fill:#ff0000;stroke:none;stroke-opacity:1;fill-opacity:1"
            d="M 138.16016 418.00195 L 137.37695 618.7832 L 256.75 616.04492 L 275.53711 603.51953 L 276.32031 532.67773 L 261.44727 519.37109 L 269.66602 509.58594 L 267.31836 442.66016 L 250.87891 424.65625 L 138.16016 418.00195 z M 187.08398 457.53125 L 220.35156 462.22852 L 222.69922 499.01953 L 187.86523 495.88867 L 187.08398 457.53125 z M 187.47461 530.7207 L 227.78711 536.98438 L 226.22266 572.59961 L 187.47461 579.25391 L 187.47461 530.7207 z " />
    </g>
    <g id="g16" >
        <path
            id="path10"
            style="fill:#FFFFFF;stroke:none;fill-opacity:1"
            d="M 459.29297 590.4082 L 457.72852 603.51953 L 446.96484 603.51953 L 443.05078 620.93555 L 454.00977 620.54492 L 453.42188 633.65625 L 440.50586 633.06836 L 441.28906 649.89844 L 450.87891 649.89844 L 450.48633 659.87891 L 465.55469 662.42383 L 468.29492 650.68164 L 480.62305 652.05078 L 479.64453 659.68359 L 496.66992 663.00977 L 498.43164 653.22656 L 510.75977 653.8125 L 513.69531 636.00391 L 501.36719 634.63477 L 503.32422 622.30664 L 515.45703 621.71875 L 516.82812 605.86719 L 506.25977 605.28125 L 507.43359 594.51758 L 489.23438 592.75586 L 486.68945 605.28125 L 476.12305 603.32422 L 476.90625 590.79883 L 459.29297 590.4082 z M 473.1875 621.32812 L 483.75586 622.11133 L 482.18945 634.04688 L 470.64258 633.46094 L 473.1875 621.32812 z " />
        <path
            style="fill:#FFFFFF;fill-opacity:1;stroke:none"
            d="m 539.13631,588.25544 -16.24259,14.67703 9.19761,12.32871 4.7945,-4.40311 -2.34832,53.03301 20.54784,-3.22895 1.56555,-71.81961 z"
            id="path11" />
        <path
            style="fill:#FFFFFF;fill-opacity:1;stroke:none"
            d="m 560.46693,589.03821 2.54401,16.82967 24.45765,0.40529 -24.49529,47.63057 2.97305,4.99715 16.81,4.29542 29.17803,-61.04661 -2.54401,-12.7201 z"
            id="path12" />
        <path
            style="fill:#FFFFFF;fill-opacity:1;stroke:none"
            d="m 617.20125,590.42197 2.54401,16.82967 24.45765,0.40529 -24.49529,47.63057 2.97305,4.99715 16.81,4.29542 29.17803,-61.04661 -2.54401,-12.7201 z"
            id="path12-8" />
        <path
            style="fill:#FFFFFF;stroke:none;fill-opacity:1"
            d="m 675.92624,593.53918 c -3.9857,5.24762 -2.54402,17.41674 -2.54402,17.41674 l 4.69665,1.56555 12.52441,-0.58709 0.78277,-6.84928 12.72009,0.97847 0.58709,6.2622 -31.31101,32.28947 0.1957,17.22105 4.30526,2.34833 46.9665,-0.39139 -0.39138,-17.41674 -27.59282,0.19569 27.20143,-26.61435 c 0,0 -0.0582,-13.73281 0,-20.93923 0.025,-3.0934 -0.83153,-8.15239 -3.91388,-8.41484 -4.41249,-0.3757 -23.63211,-0.98994 -36.39904,0.58709 -2.70359,0.33395 -6.18007,0.17897 -7.82775,2.34833 z"
            id="path13" />
        <path
            id="path14"
            style="fill:#FFFFFF;fill-opacity:1;stroke:none"
            d="m 778.07812,588.64648 c 0,0 -29.16599,0.80742 -41.68164,0.97852 -3.05659,0.0418 -5.44115,4.01843 -5.87109,7.04492 -1.15156,8.10634 -0.97851,26.02735 -0.97851,26.02735 l 4.5,8.02343 29.1582,4.69727 -1.56446,10.76367 -12.7207,0.19531 c 0,0 -0.56939,-6.04743 -1.5366,-6.72929 -1.69764,-1.19679 -14.41314,0.27031 -14.41314,0.27031 -2.65299,0.0498 -3.06719,4.79402 -2.83737,7.4375 l 1.17383,13.50195 8.02344,3.13086 37.76953,-0.19531 c 2.41478,-0.0125 4.45711,-3.26138 4.50195,-5.67578 l 1.17383,-63.20899 z m -15.06835,16.24219 0.19531,13.89453 h -14.28516 l -0.58789,-13.50195 z" />
    </g>
</svg>