<?xml version="1.0" standalone="no"?>
<!DOCTYPE svg PUBLIC "-//W3C//DTD SVG 20010904//EN"
 "http://www.w3.org/TR/2001/REC-SVG-20010904/DTD/svg10.dtd">
<svg version="1.0" xmlns="http://www.w3.org/2000/svg"
 width="1018.000000pt" height="1280.000000pt" viewBox="0 0 1018.000000 1280.000000"
 preserveAspectRatio="xMidYMid meet">
<metadata>
Created by potrace 1.15, written by Peter Selinger 2001-2017
</metadata>
<g transform="translate(0.000000,1280.000000) scale(0.100000,-0.100000)"
fill="#daa520" stroke="none">
<path d="M1552 12790 c-220 -28 -291 -79 -382 -272 -169 -362 -114 -937 160
-1658 103 -269 281 -644 435 -910 436 -758 1076 -1443 1713 -1834 100 -61 318
-172 393 -200 33 -13 63 -37 112 -92 95 -107 170 -173 265 -237 151 -101 328
-182 519 -237 69 -20 73 -22 82 -58 33 -124 53 -239 72 -407 12 -104 23 -192
25 -194 2 -2 4 22 5 55 0 32 2 55 4 49 2 -5 15 -131 29 -280 15 -148 28 -287
31 -307 5 -36 4 -38 -114 -139 l-119 -103 55 -70 c137 -175 130 -160 147 -281
70 -496 33 -917 -105 -1185 -43 -83 -43 -84 -67 -71 -32 17 -148 -28 -191 -75
-52 -56 -254 -174 -636 -371 -291 -150 -359 -182 -405 -187 -30 -3 -169 -6
-308 -6 -186 -1 -254 -4 -257 -13 -2 -7 -43 -243 -91 -526 -66 -382 -85 -516
-76 -519 9 -3 12 -113 12 -488 l0 -484 -75 0 c-51 0 -77 -4 -80 -12 -3 -7 -31
-143 -62 -303 l-57 -290 -4 -257 -3 -258 2705 0 2705 0 3 245 3 244 -62 200
c-34 110 -80 258 -103 330 l-41 131 -55 0 -55 0 1 498 2 498 -128 489 c-70
270 -131 495 -136 500 -5 6 -127 12 -301 16 -161 4 -300 10 -309 14 -10 4 -15
12 -11 19 4 7 1 6 -9 -1 -12 -11 -72 16 -359 165 -189 98 -381 200 -426 227
-78 47 -82 52 -81 84 2 46 -47 88 -135 120 l-65 23 -41 -30 c-36 -26 -39 -31
-23 -37 50 -15 98 -95 58 -95 -27 0 -127 134 -175 235 -92 190 -121 342 -128
652 -5 221 3 361 32 545 l14 88 91 116 c62 79 87 120 81 128 -5 6 -57 52 -115
101 -81 69 -105 96 -106 115 0 19 52 564 62 640 1 8 4 -14 7 -50 6 -60 8 -51
29 130 23 199 62 388 83 401 7 4 38 12 69 18 165 33 391 130 554 238 104 70
227 181 306 276 37 45 57 59 115 82 157 61 389 193 594 339 486 346 1091 1000
1455 1575 138 217 386 674 373 687 -2 3 -10 -9 -17 -26 -7 -16 -17 -27 -23
-23 -6 4 -7 1 -2 -7 6 -9 4 -11 -5 -5 -10 6 -12 4 -7 -8 3 -10 3 -17 -2 -17
-4 0 -18 -23 -31 -51 -13 -28 -27 -52 -32 -55 -4 -3 11 36 34 85 23 51 45 88
51 84 6 -3 7 -1 3 6 -4 6 17 69 47 139 224 525 337 985 337 1371 0 241 -37
408 -122 558 -103 181 -199 218 -563 218 -212 0 -338 -12 -550 -51 -195 -35
-259 -57 -309 -108 -94 -93 -121 -197 -131 -495 -8 -218 -19 -280 -60 -343
-31 -47 -69 -65 -149 -69 l-59 -4 -26 73 c-14 40 -33 74 -41 77 -37 12 -623
106 -800 129 -272 35 -396 44 -785 57 -430 14 -711 14 -1140 0 -380 -13 -528
-23 -755 -52 -266 -34 -815 -124 -839 -137 -8 -5 -24 -37 -36 -73 l-22 -64
-55 -3 c-71 -4 -117 15 -153 61 -47 63 -56 113 -65 367 -8 253 -19 310 -73
403 -58 99 -132 138 -334 177 -246 48 -620 71 -791 50z m488 -151 c144 -14
321 -45 402 -71 55 -17 72 -27 93 -58 48 -69 56 -118 65 -370 9 -262 22 -326
83 -416 67 -100 159 -144 301 -144 l81 0 1 -463 c1 -649 30 -1079 100 -1467
75 -412 278 -978 483 -1345 39 -69 71 -128 71 -131 0 -3 -64 38 -142 91 -251
171 -480 365 -726 613 -504 509 -879 1034 -1198 1677 -57 115 -104 206 -104
201 0 -4 36 -87 80 -184 44 -96 78 -177 76 -179 -3 -4 -116 237 -171 366 -20
47 -33 91 -30 98 2 8 1 12 -4 9 -17 -11 -143 359 -197 579 -49 203 -66 323
-71 520 -4 148 -2 210 11 283 19 111 62 227 110 299 32 46 42 53 102 73 112
38 323 44 584 19z m6910 0 c105 -17 151 -42 188 -102 79 -131 112 -258 119
-467 16 -439 -137 -991 -456 -1646 -183 -374 -340 -636 -554 -924 -142 -192
-246 -310 -446 -510 -313 -313 -586 -531 -896 -717 -113 -68 -141 -80 -118
-51 24 29 127 225 179 340 162 356 293 763 355 1096 69 376 99 840 99 1513 l0
407 108 4 c95 3 113 7 160 33 62 34 102 76 137 145 43 86 54 150 60 363 10
335 36 406 161 445 224 70 683 106 904 71z"/>
<path d="M9095 10619 c-4 -6 -5 -12 -2 -15 2 -3 7 2 10 11 7 17 1 20 -8 4z"/>
<path d="M5471 6684 c0 -11 3 -14 6 -6 3 7 2 16 -1 19 -3 4 -6 -2 -5 -13z"/>
</g>
</svg>
